<svg xmlns="http://www.w3.org/2000/svg" width="456" height="356" viewBox="0 0 456 356" version="1.1"><path d="M 222.788 51.551 C 207.752 55.197, 193.708 66.040, 184.814 80.869 C 181.967 85.616, 167.344 109.615, 152.319 134.200 C 137.293 158.785, 125 179.183, 125 179.530 C 125 179.876, 127.508 177.924, 130.574 175.192 C 145.239 162.121, 166.692 157.490, 184.652 163.519 C 194.334 166.769, 201.155 171.200, 208 178.684 C 211.723 182.755, 226.098 205.287, 252.500 248.439 C 277.187 288.788, 293.209 313.969, 296.157 317.052 C 312.710 334.366, 337.881 340.050, 360.423 331.565 C 377.185 325.256, 389.886 311.878, 396.088 294 C 399.482 284.218, 399.351 267.254, 395.805 257.308 C 393.988 252.211, 377.852 224.994, 340.431 163.906 C 311.385 116.491, 285.927 75.442, 283.857 72.687 C 270.460 54.857, 245.206 46.116, 222.788 51.551 M 119.638 221.519 C 99.885 226.525, 83.369 242.273, 77.473 261.720 C 69.511 287.985, 82.948 317.914, 108.122 329.987 C 151.329 350.710, 199.586 312.838, 189.910 265.799 C 187.987 256.449, 181.681 244.825, 174.675 237.715 C 167.536 230.470, 161.776 226.771, 152.120 223.230 C 143.640 220.120, 128.336 219.314, 119.638 221.519" stroke="none" fill="#ff4404" fill-rule="evenodd"/><path d="" stroke="none" fill="#fc4404" fill-rule="evenodd"/></svg>